# xmcd
#
# Track frame offsets: 
#        150
#        15755
#        25876
#        34413
#        42278
#        51876
#        61432
#        70640
#        80095
#        91685
#
# Disc length: 1394 seconds
#
# Revision: 0
# Processed by: cddbd v1.5.2PL0 Copyright (c) Steve Scherf et al.
# Submitted via: ExactAudioCopy v0.95b4
#
DISCID=7505700a
DTITLE=Various Artist - Country Guitar
DYEAR=1976
DGENRE=Classic Country
TTITLE0=Phil Baugh - Country Guitar
TTITLE1=Jackie Phelps - Alabam'
TTITLE2=Joe Maphis - A Little Bit of Travis
TTITLE3=Jackie Phelps - Sugarfoor Guitar
TTITLE4=Arthur Smith - Under the Double eagle
TTITLE5=Joe Maphis - Fiddlin' on the Guitar
TTITLE6=Jackie Phelps - Y'All Come
TTITLE7=Arthur Smith - Raunchy
TTITLE8=Reno and Smiley - Tennessee Breakdown
TTITLE9=Cowboy Copas - Cope's Wildflower
EXTD=
EXTT0=
EXTT1=
EXTT2=
EXTT3=
EXTT4=
EXTT5=
EXTT6=
EXTT7=
EXTT8=
EXTT9=
PLAYORDER=
